<svg width="99" height="99" viewBox="0 0 99 99" fill="none" xmlns="http://www.w3.org/2000/svg">
<path d="M33.9765 38.7027C34.9193 39.2453 35.5005 40.2502 35.5005 41.338L35.5007 65.4683C35.5007 65.8581 35.079 66.102 34.7412 65.9076L24.8982 60.2428C23.9554 59.7002 23.3743 58.6953 23.3743 57.6076L23.374 33.4772C23.374 33.0874 23.7957 32.8435 24.1336 33.0379L33.9765 38.7027Z" fill="#BBFE03"/>
<path d="M44.9336 38.7027C43.9908 39.2453 43.4097 40.2502 43.4097 41.338L43.4094 65.4683C43.4094 65.8581 43.8311 66.102 44.169 65.9076L54.0119 60.2428C54.9547 59.7002 55.5358 58.6953 55.5359 57.6076L55.5361 33.4772C55.5361 33.0874 55.1144 32.8435 54.7766 33.0379L44.9336 38.7027Z" fill="#BBFE03"/>
<path d="M74.0473 38.7027C74.9901 39.2453 75.5713 40.2502 75.5713 41.338L75.5715 65.4683C75.5715 65.8581 75.1498 66.102 74.812 65.9076L64.969 60.2428C64.0262 59.7002 63.4451 58.6953 63.4451 57.6076L63.4448 33.4772C63.4448 33.0874 63.8665 32.8435 64.2044 33.0379L74.0473 38.7027Z" fill="#BBFE03"/>
</svg>
