<svg width="26" height="19" viewBox="0 0 26 19" fill="none" xmlns="http://www.w3.org/2000/svg">
<path d="M4.85056 0.132791C4.93922 0.0475876 5.0574 0 5.18036 0H24.4305C24.8591 0 25.0693 0.52209 24.7603 0.81907L20.762 4.66195C20.6733 4.74715 20.5551 4.79474 20.4322 4.79474H1.18201C0.753433 4.79474 0.543213 4.27265 0.852209 3.97567L4.85056 0.132791Z" fill="#D9D9D9"/>
<path d="M4.85056 14.1734C4.93922 14.0882 5.0574 14.0406 5.18036 14.0406H24.4305C24.8591 14.0406 25.0693 14.5627 24.7603 14.8597L20.762 18.7026C20.6733 18.7878 20.5551 18.8354 20.4322 18.8354H1.18201C0.753433 18.8354 0.543213 18.3133 0.852209 18.0163L4.85056 14.1734Z" fill="#D9D9D9"/>
<path d="M4.85056 11.6092C4.93922 11.6944 5.0574 11.7419 5.18036 11.7419L24.4305 11.7419C24.8591 11.7419 25.0693 11.2199 24.7603 10.9229L20.762 7.08C20.6733 6.99479 20.5551 6.9472 20.4322 6.9472L1.18201 6.94721C0.753433 6.94721 0.543213 7.4693 0.852208 7.76628L4.85056 11.6092Z" fill="#D9D9D9"/>
</svg>
